<svg width="8" height="14" viewBox="0 0 8 14" fill="none" xmlns="http://www.w3.org/2000/svg">
<path d="M7.49946 0.0029129L5.68399 0C3.64438 0 2.32629 1.35232 2.32629 3.44538V5.03394H0.500919C0.343185 5.03394 0.215454 5.16181 0.215454 5.31955V7.62118C0.215454 7.77891 0.343331 7.90664 0.500919 7.90664H2.32629V13.7144C2.32629 13.8721 2.45402 13.9999 2.61175 13.9999H4.99334C5.15108 13.9999 5.27881 13.872 5.27881 13.7144V7.90664H7.41309C7.57083 7.90664 7.69856 7.77891 7.69856 7.62118L7.69943 5.31955C7.69943 5.24381 7.66928 5.17128 7.61583 5.11768C7.56238 5.06408 7.48956 5.03394 7.41382 5.03394H5.27881V3.6873C5.27881 3.04005 5.43305 2.71148 6.27619 2.71148L7.49917 2.71104C7.65676 2.71104 7.78449 2.58316 7.78449 2.42558V0.288377C7.78449 0.130935 7.6569 0.00320419 7.49946 0.0029129Z" fill="white"/>
</svg>
